<?xml version="1.0" encoding="UTF-8" standalone="no"?>
<!DOCTYPE svg PUBLIC "-//W3C//DTD SVG 1.1//EN"
 "http://www.w3.org/Graphics/SVG/1.1/DTD/svg11.dtd">
<!-- Generated by graphviz version 2.28.0 (20110511.1251)
 -->
<!-- Title: _anonymous_0 Pages: 1 -->
<svg width="668pt" height="940pt"
 viewBox="0.00 0.00 668.00 939.71" xmlns="http://www.w3.org/2000/svg" xmlns:xlink="http://www.w3.org/1999/xlink">
<g id="graph1" class="graph" transform="scale(1 1) rotate(0) translate(4 935.708)">
<title>_anonymous_0</title>
<polygon fill="white" stroke="white" points="-4,5 -4,-935.708 665,-935.708 665,5 -4,5"/>
<text text-anchor="middle" x="330" y="-158.8" font-family="Times,serif" font-size="14.00">Model:</text>
<text text-anchor="middle" x="330" y="-143.8" font-family="Times,serif" font-size="14.00">file:///home/leif/doap&#45;schema/schema_diagram.sparql</text>
<text text-anchor="middle" x="330" y="-112.8" font-family="Times,serif" font-size="14.00">Namespaces:</text>
<text text-anchor="middle" x="330" y="-97.8" font-family="Times,serif" font-size="14.00">rdf: http://www.w3.org/1999/02/22&#45;rdf&#45;syntax&#45;ns#</text>
<text text-anchor="middle" x="330" y="-82.8" font-family="Times,serif" font-size="14.00">rdfs: http://www.w3.org/2000/01/rdf&#45;schema#</text>
<text text-anchor="middle" x="330" y="-67.8" font-family="Times,serif" font-size="14.00">owl: http://www.w3.org/2002/07/owl#</text>
<text text-anchor="middle" x="330" y="-52.8" font-family="Times,serif" font-size="14.00">xs: http://www.w3.org/2001/XMLSchema#</text>
<text text-anchor="middle" x="330" y="-37.8" font-family="Times,serif" font-size="14.00">foaf: http://xmlns.com/foaf/0.1/</text>
<text text-anchor="middle" x="330" y="-22.8" font-family="Times,serif" font-size="14.00">dc: http://purl.org/dc/elements/1.1/</text>
<text text-anchor="middle" x="330" y="-7.8" font-family="Times,serif" font-size="14.00">http://usefulinc.com/ns/doap#</text>
<!-- RProject -->
<g id="node1" class="node"><title>RProject</title>
<ellipse fill="none" stroke="blue" cx="44" cy="-533.708" rx="44.393" ry="18"/>
<text text-anchor="middle" x="44" y="-530.008" font-family="Times,serif" font-size="14.00">Project</text>
</g>
<!-- RVersion -->
<g id="node3" class="node"><title>RVersion</title>
<ellipse fill="none" stroke="blue" cx="335" cy="-886.708" rx="45.4919" ry="18"/>
<text text-anchor="middle" x="335" y="-883.008" font-family="Times,serif" font-size="14.00">Version</text>
</g>
<!-- RProject&#45;&gt;RVersion -->
<g id="edge2" class="edge"><title>RProject&#45;&gt;RVersion</title>
<path fill="none" stroke="black" d="M45.7382,-551.737C48.6459,-613.251 61.4324,-813.403 106,-855.708 152.991,-900.313 231.955,-900.842 283.517,-895.24"/>
<polygon fill="black" stroke="black" points="283.935,-898.715 293.447,-894.049 283.101,-891.765 283.935,-898.715"/>
<text text-anchor="middle" x="166" y="-900.508" font-family="Times,serif" font-size="14.00">release</text>
</g>
<!-- RRepository -->
<g id="node5" class="node"><title>RRepository</title>
<ellipse fill="none" stroke="blue" cx="335" cy="-830.708" rx="61.1893" ry="18"/>
<text text-anchor="middle" x="335" y="-827.008" font-family="Times,serif" font-size="14.00">Repository</text>
</g>
<!-- RProject&#45;&gt;RRepository -->
<g id="edge4" class="edge"><title>RProject&#45;&gt;RRepository</title>
<path fill="none" stroke="black" d="M46.6761,-551.892C51.9851,-605.351 70.2302,-760.344 106,-793.708 148.935,-833.755 217.338,-840.097 268.032,-838.188"/>
<polygon fill="black" stroke="black" points="268.428,-841.673 278.244,-837.684 268.083,-834.681 268.428,-841.673"/>
<text text-anchor="middle" x="166" y="-840.508" font-family="Times,serif" font-size="14.00">repository</text>
</g>
<!-- Rrdfs:Literal -->
<g id="node7" class="node"><title>Rrdfs:Literal</title>
<ellipse fill="none" stroke="blue" cx="596" cy="-778.708" rx="63.8893" ry="18"/>
<text text-anchor="middle" x="596" y="-775.008" font-family="Times,serif" font-size="14.00">rdfs:Literal</text>
</g>
<!-- RProject&#45;&gt;Rrdfs:Literal -->
<g id="edge22" class="edge"><title>RProject&#45;&gt;Rrdfs:Literal</title>
<path fill="none" stroke="black" d="M47.6079,-551.709C54.6773,-597.811 75.7308,-718.223 106,-742.708 168.299,-793.102 403.428,-788.846 523.495,-783.065"/>
<polygon fill="black" stroke="black" points="523.879,-786.55 533.693,-782.557 523.531,-779.559 523.879,-786.55"/>
<text text-anchor="middle" x="335" y="-789.508" font-family="Times,serif" font-size="14.00">programming&#45;language</text>
</g>
<!-- RProject&#45;&gt;Rrdfs:Literal -->
<g id="edge24" class="edge"><title>RProject&#45;&gt;Rrdfs:Literal</title>
<path fill="none" stroke="black" d="M46.3898,-551.924C49.9683,-585.251 62.5441,-655.9 106,-691.708 138.153,-718.202 400.461,-754.278 527.089,-770.368"/>
<polygon fill="black" stroke="black" points="526.711,-773.848 537.071,-771.631 527.589,-766.903 526.711,-773.848"/>
<text text-anchor="middle" x="335" y="-759.508" font-family="Times,serif" font-size="14.00">os</text>
</g>
<!-- RProject&#45;&gt;Rrdfs:Literal -->
<g id="edge32" class="edge"><title>RProject&#45;&gt;Rrdfs:Literal</title>
<path fill="none" stroke="black" d="M50.1113,-551.608C57.9785,-575.776 75.4405,-618.379 106,-640.708 223.398,-726.488 287.141,-665.596 426,-708.708 470.634,-722.565 519.8,-743.623 553.537,-759.023"/>
<polygon fill="black" stroke="black" points="552.08,-762.205 562.627,-763.206 555.006,-755.846 552.08,-762.205"/>
<text text-anchor="middle" x="335" y="-712.508" font-family="Times,serif" font-size="14.00">language</text>
</g>
<!-- RProject&#45;&gt;Rrdfs:Literal -->
<g id="edge36" class="edge"><title>RProject&#45;&gt;Rrdfs:Literal</title>
<path fill="none" stroke="black" d="M53.7469,-551.601C63.7351,-570.019 81.866,-598.034 106,-612.708 136.876,-631.48 391.46,-660.09 426,-670.708 466.891,-683.278 477.786,-686.934 514,-709.708 534.241,-722.437 554.721,-739.933 570.024,-754.122"/>
<polygon fill="black" stroke="black" points="567.85,-756.883 577.526,-761.198 572.653,-751.79 567.85,-756.883"/>
<text text-anchor="middle" x="335" y="-674.508" font-family="Times,serif" font-size="14.00">platform</text>
</g>
<!-- RProject&#45;&gt;Rrdfs:Literal -->
<g id="edge40" class="edge"><title>RProject&#45;&gt;Rrdfs:Literal</title>
<path fill="none" stroke="black" d="M63.7447,-549.983C75.1939,-559.024 90.5625,-569.642 106,-575.708 279.38,-643.836 373.391,-549.513 514,-671.708 540.859,-695.049 564.499,-728.623 579.202,-751.913"/>
<polygon fill="black" stroke="black" points="576.336,-753.932 584.572,-760.596 582.289,-750.25 576.336,-753.932"/>
<text text-anchor="middle" x="335" y="-621.508" font-family="Times,serif" font-size="14.00">audience</text>
</g>
<!-- Rfoaf:Person -->
<g id="node10" class="node"><title>Rfoaf:Person</title>
<ellipse fill="none" stroke="blue" cx="335" cy="-476.708" rx="63.0888" ry="18"/>
<text text-anchor="middle" x="335" y="-473.008" font-family="Times,serif" font-size="14.00">foaf:Person</text>
</g>
<!-- RProject&#45;&gt;Rfoaf:Person -->
<g id="edge10" class="edge"><title>RProject&#45;&gt;Rfoaf:Person</title>
<path fill="none" stroke="black" d="M79.8401,-544.47C116.898,-554.162 176.834,-564.766 226,-549.708 257.33,-540.113 287.766,-518.022 308.299,-500.638"/>
<polygon fill="black" stroke="black" points="310.679,-503.206 315.931,-494.004 306.087,-497.923 310.679,-503.206"/>
<text text-anchor="middle" x="166" y="-560.508" font-family="Times,serif" font-size="14.00">maintainer</text>
</g>
<!-- RProject&#45;&gt;Rfoaf:Person -->
<g id="edge12" class="edge"><title>RProject&#45;&gt;Rfoaf:Person</title>
<path fill="none" stroke="black" d="M87.8133,-530.839C124.738,-527.811 179.324,-522.007 226,-511.708 246.242,-507.241 268.079,-500.538 286.785,-494.189"/>
<polygon fill="black" stroke="black" points="287.949,-497.49 296.257,-490.915 285.662,-490.874 287.949,-497.49"/>
<text text-anchor="middle" x="166" y="-532.508" font-family="Times,serif" font-size="14.00">developer</text>
</g>
<!-- RProject&#45;&gt;Rfoaf:Person -->
<g id="edge14" class="edge"><title>RProject&#45;&gt;Rfoaf:Person</title>
<path fill="none" stroke="black" d="M63.6487,-517.397C75.0649,-508.425 90.4325,-498.056 106,-492.708 133.821,-483.15 205.899,-479.296 261.635,-477.745"/>
<polygon fill="black" stroke="black" points="261.932,-481.239 271.838,-477.482 261.751,-474.241 261.932,-481.239"/>
<text text-anchor="middle" x="166" y="-496.508" font-family="Times,serif" font-size="14.00">documenter</text>
</g>
<!-- RProject&#45;&gt;Rfoaf:Person -->
<g id="edge16" class="edge"><title>RProject&#45;&gt;Rfoaf:Person</title>
<path fill="none" stroke="black" d="M53.5839,-516.089C63.436,-498.119 81.4544,-471.284 106,-459.708 163.146,-432.756 237.376,-445.893 285.351,-459.686"/>
<polygon fill="black" stroke="black" points="284.591,-463.112 295.174,-462.625 286.597,-456.405 284.591,-463.112"/>
<text text-anchor="middle" x="166" y="-463.508" font-family="Times,serif" font-size="14.00">translator</text>
</g>
<!-- RProject&#45;&gt;Rfoaf:Person -->
<g id="edge18" class="edge"><title>RProject&#45;&gt;Rfoaf:Person</title>
<path fill="none" stroke="black" d="M49.2008,-515.547C56.1505,-490.198 72.7096,-445.138 106,-425.708 168.071,-389.479 253.443,-427.833 300.126,-454.882"/>
<polygon fill="black" stroke="black" points="298.544,-458.013 308.928,-460.115 302.121,-451.996 298.544,-458.013"/>
<text text-anchor="middle" x="166" y="-429.508" font-family="Times,serif" font-size="14.00">tester</text>
</g>
<!-- RProject&#45;&gt;Rfoaf:Person -->
<g id="edge20" class="edge"><title>RProject&#45;&gt;Rfoaf:Person</title>
<path fill="none" stroke="black" d="M46.6902,-515.477C50.6982,-484.049 63.8686,-420.386 106,-392.708 150.575,-363.424 175.553,-375.399 226,-392.708 259.869,-404.328 291.298,-431.389 311.417,-451.677"/>
<polygon fill="black" stroke="black" points="309.093,-454.309 318.556,-459.075 314.13,-449.448 309.093,-454.309"/>
<text text-anchor="middle" x="166" y="-396.508" font-family="Times,serif" font-size="14.00">helper</text>
</g>
<!-- RSpecification -->
<g id="node20" class="node"><title>RSpecification</title>
<ellipse fill="none" stroke="blue" cx="335" cy="-343.708" rx="70.6878" ry="18"/>
<text text-anchor="middle" x="335" y="-340.008" font-family="Times,serif" font-size="14.00">Specification</text>
</g>
<!-- RProject&#45;&gt;RSpecification -->
<g id="edge28" class="edge"><title>RProject&#45;&gt;RSpecification</title>
<path fill="none" stroke="black" d="M45.1111,-515.433C46.433,-478.485 55.2054,-395.157 106,-356.708 153.024,-321.113 222.381,-322.495 272.24,-329.899"/>
<polygon fill="black" stroke="black" points="271.825,-333.378 282.253,-331.505 272.934,-326.466 271.825,-333.378"/>
<text text-anchor="middle" x="166" y="-360.508" font-family="Times,serif" font-size="14.00">implements</text>
</g>
<!-- Rrdfs:Resource -->
<g id="node22" class="node"><title>Rrdfs:Resource</title>
<ellipse fill="none" stroke="blue" cx="335" cy="-286.708" rx="75.2868" ry="18"/>
<text text-anchor="middle" x="335" y="-283.008" font-family="Times,serif" font-size="14.00">rdfs:Resource</text>
</g>
<!-- RProject&#45;&gt;Rrdfs:Resource -->
<g id="edge30" class="edge"><title>RProject&#45;&gt;Rrdfs:Resource</title>
<path fill="none" stroke="black" d="M47.1998,-515.635C53.5363,-466.79 73.4822,-333.98 106,-306.708 127.424,-288.74 194.203,-284.483 249.993,-284.293"/>
<polygon fill="black" stroke="black" points="250.265,-287.793 260.269,-284.302 250.272,-280.793 250.265,-287.793"/>
<text text-anchor="middle" x="166" y="-310.508" font-family="Times,serif" font-size="14.00">service&#45;endpoint</text>
</g>
<!-- RProject&#45;&gt;Rrdfs:Resource -->
<g id="edge42" class="edge"><title>RProject&#45;&gt;Rrdfs:Resource</title>
<path fill="none" stroke="black" d="M46.294,-515.541C50.62,-460.615 66.5913,-298.128 106,-266.708 130.744,-246.979 212.965,-259.544 271.558,-271.854"/>
<polygon fill="black" stroke="black" points="270.962,-275.305 281.474,-273.981 272.431,-268.461 270.962,-275.305"/>
<text text-anchor="middle" x="166" y="-270.508" font-family="Times,serif" font-size="14.00">blog</text>
</g>
<!-- Rfoaf:Organization -->
<g id="node25" class="node"><title>Rfoaf:Organization</title>
<ellipse fill="none" stroke="blue" cx="335" cy="-229.708" rx="90.9839" ry="18"/>
<text text-anchor="middle" x="335" y="-226.008" font-family="Times,serif" font-size="14.00">foaf:Organization</text>
</g>
<!-- RProject&#45;&gt;Rfoaf:Organization -->
<g id="edge34" class="edge"><title>RProject&#45;&gt;Rfoaf:Organization</title>
<path fill="none" stroke="black" d="M45.9235,-515.345C49.2999,-456.436 63.1082,-273.932 106,-237.708 151.39,-199.374 221.866,-203.216 272.447,-212.97"/>
<polygon fill="black" stroke="black" points="271.785,-216.407 282.285,-214.989 273.193,-209.55 271.785,-216.407"/>
<text text-anchor="middle" x="166" y="-241.508" font-family="Times,serif" font-size="14.00">vendor</text>
</g>
<!-- RVersion&#45;&gt;Rrdfs:Literal -->
<g id="edge26" class="edge"><title>RVersion&#45;&gt;Rrdfs:Literal</title>
<path fill="none" stroke="black" d="M367.07,-899.708C404.354,-913.145 467.634,-928.912 514,-903.708 551.762,-883.18 574.634,-836.616 586.033,-806.477"/>
<polygon fill="black" stroke="black" points="589.369,-807.541 589.464,-796.947 582.783,-805.17 589.369,-807.541"/>
<text text-anchor="middle" x="479" y="-920.508" font-family="Times,serif" font-size="14.00">os</text>
</g>
<!-- RVersion&#45;&gt;Rrdfs:Literal -->
<g id="edge38" class="edge"><title>RVersion&#45;&gt;Rrdfs:Literal</title>
<path fill="none" stroke="black" d="M380.451,-884.948C425.403,-882.554 491.381,-877.177 514,-865.708 541.097,-851.969 563.815,-825.261 578.23,-805.043"/>
<polygon fill="black" stroke="black" points="581.284,-806.779 584.071,-796.557 575.518,-802.81 581.284,-806.779"/>
<text text-anchor="middle" x="479" y="-883.508" font-family="Times,serif" font-size="14.00">platform</text>
</g>
<!-- RVersion&#45;&gt;Rrdfs:Literal -->
<g id="edge8" class="edge"><title>RVersion&#45;&gt;Rrdfs:Literal</title>
<path fill="none" stroke="black" d="M371.642,-875.757C388.242,-870.521 408.21,-864.027 426,-857.708 434.089,-854.835 435.939,-853.656 444,-850.708 474.888,-839.412 484.141,-840.497 514,-826.708 530.222,-819.216 547.359,-809.371 561.672,-800.547"/>
<polygon fill="black" stroke="black" points="563.568,-803.49 570.186,-795.216 559.853,-797.557 563.568,-803.49"/>
<text text-anchor="middle" x="479" y="-854.508" font-family="Times,serif" font-size="14.00">revision</text>
</g>
<!-- RRepository&#45;&gt;Rrdfs:Literal -->
<g id="edge6" class="edge"><title>RRepository&#45;&gt;Rrdfs:Literal</title>
<path fill="none" stroke="black" d="M385.938,-820.682C428.029,-812.231 488.43,-800.104 533.496,-791.056"/>
<polygon fill="black" stroke="black" points="534.327,-794.459 543.443,-789.059 532.949,-787.596 534.327,-794.459"/>
<text text-anchor="middle" x="479" y="-811.508" font-family="Times,serif" font-size="14.00">anon&#45;root</text>
</g>
</g>
</svg>
