<?xml version="1.0" encoding="UTF-8" standalone="no"?>
<!DOCTYPE svg PUBLIC "-//W3C//DTD SVG 1.1//EN"
 "http://www.w3.org/Graphics/SVG/1.1/DTD/svg11.dtd">
<!-- Generated by graphviz version 2.28.0 (20110511.1251)
 -->
<!-- Title: _anonymous_0 Pages: 1 -->
<svg width="1006pt" height="773pt"
 viewBox="0.00 0.00 1006.00 773.28" xmlns="http://www.w3.org/2000/svg" xmlns:xlink="http://www.w3.org/1999/xlink">
<g id="graph1" class="graph" transform="scale(1 1) rotate(0) translate(4 769.284)">
<title>_anonymous_0</title>
<polygon fill="white" stroke="white" points="-4,5 -4,-769.284 1003,-769.284 1003,5 -4,5"/>
<text text-anchor="middle" x="499" y="-143.8" font-family="Times,serif" font-size="14.00">Model:</text>
<text text-anchor="middle" x="499" y="-128.8" font-family="Times,serif" font-size="14.00">.</text>
<text text-anchor="middle" x="499" y="-97.8" font-family="Times,serif" font-size="14.00">Namespaces:</text>
<text text-anchor="middle" x="499" y="-82.8" font-family="Times,serif" font-size="14.00">rdfs: http://www.w3.org/2000/01/rdf&#45;schema#</text>
<text text-anchor="middle" x="499" y="-67.8" font-family="Times,serif" font-size="14.00">foaf: http://xmlns.com/foaf/0.1/</text>
<text text-anchor="middle" x="499" y="-52.8" font-family="Times,serif" font-size="14.00">bio: http://purl.org/vocab/bio/0.1/</text>
<text text-anchor="middle" x="499" y="-37.8" font-family="Times,serif" font-size="14.00">dc: http://purl.org/dc/terms/</text>
<text text-anchor="middle" x="499" y="-22.8" font-family="Times,serif" font-size="14.00">doap: http://usefulinc.com/ns/doap#</text>
<text text-anchor="middle" x="499" y="-7.8" font-family="Times,serif" font-size="14.00">epdx: http://epdx.org/schema/</text>
<!-- Repdx:Tag -->
<g id="node1" class="node"><title>Repdx:Tag</title>
<ellipse fill="none" stroke="blue" cx="745" cy="-586.284" rx="52.7911" ry="18"/>
<text text-anchor="middle" x="745" y="-582.584" font-family="Times,serif" font-size="14.00">epdx:Tag</text>
</g>
<!-- Lstring -->
<g id="node3" class="node"><title>Lstring</title>
<polygon fill="none" stroke="black" points="938.5,-491.284 938.5,-527.284 997.5,-527.284 997.5,-491.284 938.5,-491.284"/>
<text text-anchor="middle" x="968" y="-505.584" font-family="Times,serif" font-size="14.00">string</text>
</g>
<!-- Repdx:Tag&#45;&gt;Lstring -->
<g id="edge2" class="edge"><title>Repdx:Tag&#45;&gt;Lstring</title>
<path fill="none" stroke="black" d="M796.521,-582.186C832.458,-577.718 881.067,-568.444 920,-549.284 927.877,-545.408 935.527,-539.915 942.288,-534.238"/>
<polygon fill="black" stroke="black" points="944.632,-536.837 949.776,-527.574 939.979,-531.607 944.632,-536.837"/>
<text text-anchor="middle" x="886" y="-575.084" font-family="Times,serif" font-size="14.00">rdfs:label</text>
</g>
<!-- Repdx:Technology -->
<g id="node4" class="node"><title>Repdx:Technology</title>
<ellipse fill="none" stroke="blue" cx="745" cy="-379.284" rx="89.0842" ry="18"/>
<text text-anchor="middle" x="745" y="-375.584" font-family="Times,serif" font-size="14.00">epdx:Technology</text>
</g>
<!-- Repdx:Technology&#45;&gt;Lstring -->
<g id="edge4" class="edge"><title>Repdx:Technology&#45;&gt;Lstring</title>
<path fill="none" stroke="black" d="M831.719,-375.151C862.158,-377.684 895.028,-385.445 920,-404.284 944.444,-422.725 956.467,-456.737 962.179,-481.056"/>
<polygon fill="black" stroke="black" points="958.818,-482.079 964.32,-491.133 965.665,-480.624 958.818,-482.079"/>
<text text-anchor="middle" x="886" y="-408.084" font-family="Times,serif" font-size="14.00">rdfs:label</text>
</g>
<!-- Rdoap:Project -->
<g id="node6" class="node"><title>Rdoap:Project</title>
<ellipse fill="none" stroke="blue" cx="70" cy="-640.284" rx="69.5877" ry="18"/>
<text text-anchor="middle" x="70" y="-636.584" font-family="Times,serif" font-size="14.00">doap:Project</text>
</g>
<!-- Rdoap:Project&#45;&gt;Repdx:Tag -->
<g id="edge6" class="edge"><title>Rdoap:Project&#45;&gt;Repdx:Tag</title>
<path fill="none" stroke="black" d="M128.977,-630.6C138.658,-629.085 148.605,-627.59 158,-626.284 214.733,-618.399 228.932,-616.181 286,-611.284 427.572,-599.137 594.297,-591.778 682.332,-588.433"/>
<polygon fill="black" stroke="black" points="682.551,-591.928 692.413,-588.055 682.289,-584.933 682.551,-591.928"/>
<text text-anchor="middle" x="349" y="-615.084" font-family="Times,serif" font-size="14.00">epdx:tag</text>
</g>
<!-- Rdoap:Project&#45;&gt;Lstring -->
<g id="edge8" class="edge"><title>Rdoap:Project&#45;&gt;Lstring</title>
<path fill="none" stroke="black" d="M92.3751,-657.511C109.122,-669.853 133.6,-685.452 158,-692.284 321.06,-737.947 786.566,-796.539 920,-692.284 944.22,-673.361 958.166,-584.076 963.902,-537.586"/>
<polygon fill="black" stroke="black" points="967.389,-537.897 965.093,-527.554 960.438,-537.071 967.389,-537.897"/>
<text text-anchor="middle" x="534" y="-754.084" font-family="Times,serif" font-size="14.00">doap:description</text>
</g>
<!-- Rdoap:Project&#45;&gt;Lstring -->
<g id="edge10" class="edge"><title>Rdoap:Project&#45;&gt;Lstring</title>
<path fill="none" stroke="black" d="M128.847,-649.949C299.135,-677.084 794.536,-746.189 920,-654.284 956.601,-627.474 965.258,-571.54 966.984,-537.516"/>
<polygon fill="black" stroke="black" points="970.489,-537.416 967.327,-527.304 963.493,-537.18 970.489,-537.416"/>
<text text-anchor="middle" x="534" y="-703.084" font-family="Times,serif" font-size="14.00">doap:name</text>
</g>
<!-- Rdoap:Project&#45;&gt;Lstring -->
<g id="edge12" class="edge"><title>Rdoap:Project&#45;&gt;Lstring</title>
<path fill="none" stroke="black" d="M138.832,-642.988C272.639,-647.2 579.681,-651.292 834,-613.284 873.131,-607.436 888.579,-614.329 920,-590.284 937.649,-576.779 949.85,-554.604 957.39,-536.867"/>
<polygon fill="black" stroke="black" points="960.651,-538.138 961.104,-527.553 954.148,-535.545 960.651,-538.138"/>
<text text-anchor="middle" x="534" y="-647.084" font-family="Times,serif" font-size="14.00">doap:programming&#45;language</text>
</g>
<!-- Rfoaf:Person -->
<g id="node15" class="node"><title>Rfoaf:Person</title>
<ellipse fill="none" stroke="blue" cx="349" cy="-484.284" rx="63.0888" ry="18"/>
<text text-anchor="middle" x="349" y="-480.584" font-family="Times,serif" font-size="14.00">foaf:Person</text>
</g>
<!-- Rdoap:Project&#45;&gt;Rfoaf:Person -->
<g id="edge28" class="edge"><title>Rdoap:Project&#45;&gt;Rfoaf:Person</title>
<path fill="none" stroke="black" d="M90.436,-622.968C107.47,-608.326 133.3,-587.38 158,-572.284 204.467,-543.886 261.613,-518.59 301.028,-502.49"/>
<polygon fill="black" stroke="black" points="302.691,-505.592 310.649,-498.598 300.067,-499.103 302.691,-505.592"/>
<text text-anchor="middle" x="213" y="-576.084" font-family="Times,serif" font-size="14.00">doap:developer</text>
</g>
<!-- Rfoaf:Group -->
<g id="node11" class="node"><title>Rfoaf:Group</title>
<ellipse fill="none" stroke="blue" cx="70" cy="-379.284" rx="59.5901" ry="18"/>
<text text-anchor="middle" x="70" y="-375.584" font-family="Times,serif" font-size="14.00">foaf:Group</text>
</g>
<!-- Rfoaf:Group&#45;&gt;Repdx:Tag -->
<g id="edge30" class="edge"><title>Rfoaf:Group&#45;&gt;Repdx:Tag</title>
<path fill="none" stroke="black" d="M83.0935,-396.933C98.2723,-417.806 126.205,-452.241 158,-472.284 265.254,-539.898 305.679,-533.396 430,-558.284 516.42,-575.585 618.365,-582.2 682.106,-584.726"/>
<polygon fill="black" stroke="black" points="682.264,-588.234 692.388,-585.111 682.526,-581.239 682.264,-588.234"/>
<text text-anchor="middle" x="349" y="-558.084" font-family="Times,serif" font-size="14.00">epdx:tag</text>
</g>
<!-- Rfoaf:Group&#45;&gt;Lstring -->
<g id="edge16" class="edge"><title>Rfoaf:Group&#45;&gt;Lstring</title>
<path fill="none" stroke="black" d="M89.7386,-362C106.336,-347.825 131.918,-328.63 158,-319.284 476.819,-205.05 662.032,-99.8588 920,-319.284 944.424,-340.06 958.381,-433.465 964.029,-481.122"/>
<polygon fill="black" stroke="black" points="960.556,-481.561 965.169,-491.099 967.511,-480.766 960.556,-481.561"/>
<text text-anchor="middle" x="534" y="-226.084" font-family="Times,serif" font-size="14.00">dc:description</text>
</g>
<!-- Rfoaf:Group&#45;&gt;Lstring -->
<g id="edge18" class="edge"><title>Rfoaf:Group&#45;&gt;Lstring</title>
<path fill="none" stroke="black" d="M124.453,-371.536C249.256,-354.72 569.335,-318.968 834,-352.284 873.144,-357.212 890.948,-347.591 920,-374.284 950.242,-402.071 961.026,-450.347 964.87,-481.011"/>
<polygon fill="black" stroke="black" points="961.402,-481.496 965.961,-491.06 968.361,-480.741 961.402,-481.496"/>
<text text-anchor="middle" x="534" y="-347.084" font-family="Times,serif" font-size="14.00">foaf:name</text>
</g>
<!-- Rfoaf:Group&#45;&gt;Repdx:Technology -->
<g id="edge14" class="edge"><title>Rfoaf:Group&#45;&gt;Repdx:Technology</title>
<path fill="none" stroke="black" d="M129.84,-379.284C245.565,-379.284 503.827,-379.284 645.808,-379.284"/>
<polygon fill="black" stroke="black" points="645.827,-382.785 655.827,-379.284 645.827,-375.785 645.827,-382.785"/>
<text text-anchor="middle" x="349" y="-383.084" font-family="Times,serif" font-size="14.00">epdx:technology</text>
</g>
<!-- Rfoaf:Group&#45;&gt;Rfoaf:Person -->
<g id="edge32" class="edge"><title>Rfoaf:Group&#45;&gt;Rfoaf:Person</title>
<path fill="none" stroke="black" d="M108.07,-393.336C157.858,-412.209 246.355,-445.755 300.834,-466.406"/>
<polygon fill="black" stroke="black" points="299.672,-469.708 310.263,-469.98 302.153,-463.162 299.672,-469.708"/>
<text text-anchor="middle" x="213" y="-457.084" font-family="Times,serif" font-size="14.00">foaf:member</text>
</g>
<!-- Rfoaf:Person&#45;&gt;Repdx:Tag -->
<g id="edge20" class="edge"><title>Rfoaf:Person&#45;&gt;Repdx:Tag</title>
<path fill="none" stroke="black" d="M379.564,-500.264C394.311,-507.533 412.663,-515.552 430,-520.284 519.725,-544.778 549.991,-513.204 638,-543.284 646.872,-546.317 647.552,-550.218 656,-554.284 668.73,-560.413 682.958,-566.068 696.201,-570.865"/>
<polygon fill="black" stroke="black" points="695.039,-574.166 705.633,-574.201 697.373,-567.567 695.039,-574.166"/>
<text text-anchor="middle" x="534" y="-547.084" font-family="Times,serif" font-size="14.00">epdx:tag</text>
</g>
<!-- Rfoaf:Person&#45;&gt;Lstring -->
<g id="edge22" class="edge"><title>Rfoaf:Person&#45;&gt;Lstring</title>
<path fill="none" stroke="black" d="M405.003,-492.593C413.362,-493.639 421.899,-494.586 430,-495.284 616.162,-511.337 839.854,-510.838 928.302,-509.863"/>
<polygon fill="black" stroke="black" points="928.449,-513.361 938.407,-509.743 928.366,-506.362 928.449,-513.361"/>
<text text-anchor="middle" x="745" y="-513.084" font-family="Times,serif" font-size="14.00">bio:biography</text>
</g>
<!-- Rfoaf:Person&#45;&gt;Lstring -->
<g id="edge24" class="edge"><title>Rfoaf:Person&#45;&gt;Lstring</title>
<path fill="none" stroke="black" d="M411.627,-482.188C503.71,-479.674 682.595,-477.178 834,-489.284 865.952,-491.839 901.881,-497.405 928.333,-502.018"/>
<polygon fill="black" stroke="black" points="927.877,-505.492 938.335,-503.796 929.102,-498.6 927.877,-505.492"/>
<text text-anchor="middle" x="745" y="-494.084" font-family="Times,serif" font-size="14.00">foaf:name</text>
</g>
<!-- Rfoaf:Person&#45;&gt;Lstring -->
<g id="edge26" class="edge"><title>Rfoaf:Person&#45;&gt;Lstring</title>
<path fill="none" stroke="black" d="M404.03,-475.302C493.794,-461.836 679.11,-440.228 834,-462.284 873.407,-467.896 882.752,-473.249 920,-487.284 923.035,-488.428 926.146,-489.685 929.251,-491.001"/>
<polygon fill="black" stroke="black" points="927.908,-494.234 938.47,-495.071 930.735,-487.83 927.908,-494.234"/>
<text text-anchor="middle" x="745" y="-466.084" font-family="Times,serif" font-size="14.00">foaf:twitterID</text>
</g>
<!-- Rfoaf:Person&#45;&gt;Repdx:Technology -->
<g id="edge34" class="edge"><title>Rfoaf:Person&#45;&gt;Repdx:Technology</title>
<path fill="none" stroke="black" d="M364.125,-466.578C378.68,-449.733 403.002,-425.239 430,-413.284 432.597,-412.134 563.517,-398.215 655.467,-388.547"/>
<polygon fill="black" stroke="black" points="656.056,-392.005 665.635,-387.479 655.324,-385.043 656.056,-392.005"/>
<text text-anchor="middle" x="534" y="-417.084" font-family="Times,serif" font-size="14.00">epdx:technology</text>
</g>
</g>
</svg>
